<svg width="365" height="334" viewBox="0 0 365 334" fill="none" xmlns="http://www.w3.org/2000/svg">
<rect y="82.667" width="6" height="2.66667" fill="#FF2748" fill-opacity="0.8"/>
<rect width="6" height="2.66667" fill="#FF2748"/>
<rect x="56" y="82.667" width="6" height="2.66667" fill="#FF2748" fill-opacity="0.8"/>
<rect x="56" width="6" height="2.66667" fill="#FF2748"/>
<rect x="112" y="82.667" width="6" height="2.66667" fill="#FF2748" fill-opacity="0.8"/>
<rect x="112" width="6" height="2.66667" fill="#FF2748"/>
<rect x="168" y="82.667" width="6" height="2.66667" fill="#FF2748" fill-opacity="0.8"/>
<rect x="168" width="6" height="2.66667" fill="#FF2748"/>
<rect x="224" y="82.667" width="6" height="2.66667" fill="#FF2748" fill-opacity="0.8"/>
<rect x="224" width="6" height="2.66667" fill="#FF2748"/>
<rect x="280" y="82.667" width="6" height="2.66667" fill="#FF2748" fill-opacity="0.8"/>
<rect x="280" width="6" height="2.66667" fill="#FF2748"/>
<rect x="336" y="82.667" width="6" height="2.66667" fill="#FF2748" fill-opacity="0.8"/>
<rect x="336" width="6" height="2.66667" fill="#FF2748"/>
<rect y="165.333" width="6" height="2.66667" fill="#FF2748" fill-opacity="0.6"/>
<rect x="56" y="165.333" width="6" height="2.66667" fill="#FF2748" fill-opacity="0.6"/>
<rect x="112" y="165.333" width="6" height="2.66667" fill="#FF2748" fill-opacity="0.6"/>
<rect x="168" y="165.333" width="6" height="2.66667" fill="#FF2748" fill-opacity="0.6"/>
<rect x="224" y="165.333" width="6" height="2.66667" fill="#FF2748" fill-opacity="0.6"/>
<rect x="280" y="165.333" width="6" height="2.66667" fill="#FF2748" fill-opacity="0.6"/>
<rect x="336" y="165.333" width="6" height="2.66667" fill="#FF2748" fill-opacity="0.6"/>
<rect y="248" width="6" height="2.66667" fill="#FF2748" fill-opacity="0.4"/>
<rect x="56" y="248" width="6" height="2.66667" fill="#FF2748" fill-opacity="0.4"/>
<rect x="112" y="248" width="6" height="2.66667" fill="#FF2748" fill-opacity="0.4"/>
<rect x="168" y="248" width="6" height="2.66667" fill="#FF2748" fill-opacity="0.4"/>
<rect x="224" y="248" width="6" height="2.66667" fill="#FF2748" fill-opacity="0.4"/>
<rect x="280" y="248" width="6" height="2.66667" fill="#FF2748" fill-opacity="0.4"/>
<rect x="336" y="248" width="6" height="2.66667" fill="#FF2748" fill-opacity="0.4"/>
<rect opacity="0.2" y="330.667" width="6" height="2.66667" fill="#FF2748"/>
<rect opacity="0.2" x="56" y="330.667" width="6" height="2.66667" fill="#FF2748"/>
<rect opacity="0.2" x="112" y="330.667" width="6" height="2.66667" fill="#FF2748"/>
<rect opacity="0.2" x="168" y="330.667" width="6" height="2.66667" fill="#FF2748"/>
<rect opacity="0.2" x="224" y="330.667" width="6" height="2.66667" fill="#FF2748"/>
<rect opacity="0.2" x="280" y="330.667" width="6" height="2.66667" fill="#FF2748"/>
<rect opacity="0.2" x="336" y="330.667" width="6" height="2.66667" fill="#FF2748"/>
</svg>
