<svg width="1729" height="401" viewBox="0 0 1729 401" fill="none" xmlns="http://www.w3.org/2000/svg">
<rect y="106" width="9" height="4" fill="#FF2748" fill-opacity="0.8"/>
<rect y="4" width="9" height="4" fill="#FF2748"/>
<rect x="172" y="106" width="9" height="4" fill="#FF2748" fill-opacity="0.8"/>
<rect x="172" y="4" width="9" height="4" fill="#FF2748"/>
<rect x="344" y="106" width="9" height="4" fill="#FF2748" fill-opacity="0.8"/>
<rect x="344" y="4" width="9" height="4" fill="#FF2748"/>
<rect x="516" y="106" width="9" height="4" fill="#FF2748" fill-opacity="0.8"/>
<rect x="516" y="4" width="9" height="4" fill="#FF2748"/>
<rect x="688" y="106" width="9" height="4" fill="#FF2748" fill-opacity="0.8"/>
<rect x="688" y="4" width="9" height="4" fill="#FF2748"/>
<rect x="860" y="106" width="9" height="4" fill="#FF2748" fill-opacity="0.8"/>
<rect x="860" y="4" width="9" height="4" fill="#FF2748"/>
<rect x="1032" y="106" width="9" height="4" fill="#FF2748" fill-opacity="0.8"/>
<rect x="1032" y="4" width="9" height="4" fill="#FF2748"/>
<rect x="1204" y="106" width="9" height="4" fill="#FF2748" fill-opacity="0.8"/>
<rect x="1548" y="102" width="9" height="4" fill="#FF2748" fill-opacity="0.8"/>
<rect x="1204" y="4" width="9" height="4" fill="#FF2748"/>
<rect x="1548" width="9" height="4" fill="#FF2748"/>
<rect x="1350" y="108" width="9" height="4" fill="#FF2748" fill-opacity="0.8"/>
<rect x="1720" y="102" width="9" height="4" fill="#FF2748" fill-opacity="0.8"/>
<rect x="1376" y="4" width="9" height="4" fill="#FF2748"/>
<rect x="1720" width="9" height="4" fill="#FF2748"/>
<rect y="203" width="9" height="4" fill="#FF2748" fill-opacity="0.6"/>
<rect x="172" y="203" width="9" height="4" fill="#FF2748" fill-opacity="0.6"/>
<rect x="344" y="203" width="9" height="4" fill="#FF2748" fill-opacity="0.6"/>
<rect x="516" y="203" width="9" height="4" fill="#FF2748" fill-opacity="0.6"/>
<rect x="688" y="203" width="9" height="4" fill="#FF2748" fill-opacity="0.6"/>
<rect x="860" y="203" width="9" height="4" fill="#FF2748" fill-opacity="0.6"/>
<rect x="1032" y="203" width="9" height="4" fill="#FF2748" fill-opacity="0.6"/>
<rect x="1204" y="203" width="9" height="4" fill="#FF2748" fill-opacity="0.6"/>
<rect x="1548" y="199" width="9" height="4" fill="#FF2748" fill-opacity="0.6"/>
<rect x="1376" y="203" width="9" height="4" fill="#FF2748" fill-opacity="0.6"/>
<rect x="1720" y="199" width="9" height="4" fill="#FF2748" fill-opacity="0.6"/>
<rect y="300" width="9" height="4" fill="#FF2748" fill-opacity="0.4"/>
<rect x="172" y="300" width="9" height="4" fill="#FF2748" fill-opacity="0.4"/>
<rect x="344" y="300" width="9" height="4" fill="#FF2748" fill-opacity="0.4"/>
<rect x="516" y="300" width="9" height="4" fill="#FF2748" fill-opacity="0.4"/>
<rect x="688" y="300" width="9" height="4" fill="#FF2748" fill-opacity="0.4"/>
<rect x="860" y="300" width="9" height="4" fill="#FF2748" fill-opacity="0.4"/>
<rect x="1032" y="300" width="9" height="4" fill="#FF2748" fill-opacity="0.4"/>
<rect x="1204" y="300" width="9" height="4" fill="#FF2748" fill-opacity="0.4"/>
<rect x="1548" y="296" width="9" height="4" fill="#FF2748" fill-opacity="0.4"/>
<rect x="1376" y="300" width="9" height="4" fill="#FF2748" fill-opacity="0.4"/>
<rect x="1720" y="296" width="9" height="4" fill="#FF2748" fill-opacity="0.4"/>
<rect opacity="0.2" y="397" width="9" height="4" fill="#FF2748"/>
<rect opacity="0.2" x="172" y="397" width="9" height="4" fill="#FF2748"/>
<rect opacity="0.2" x="344" y="397" width="9" height="4" fill="#FF2748"/>
<rect opacity="0.2" x="516" y="397" width="9" height="4" fill="#FF2748"/>
<rect opacity="0.2" x="688" y="397" width="9" height="4" fill="#FF2748"/>
<rect opacity="0.2" x="860" y="397" width="9" height="4" fill="#FF2748"/>
<rect opacity="0.2" x="1032" y="397" width="9" height="4" fill="#FF2748"/>
<rect opacity="0.2" x="1204" y="397" width="9" height="4" fill="#FF2748"/>
<rect opacity="0.2" x="1548" y="393" width="9" height="4" fill="#FF2748"/>
<rect opacity="0.2" x="1376" y="397" width="9" height="4" fill="#FF2748"/>
<rect opacity="0.2" x="1720" y="393" width="9" height="4" fill="#FF2748"/>
</svg>
